# xmcd
#
# Track frame offsets: 
#        150
#        13810
#        38352
#        58652
#        78075
#        98322
#        122195
#        137007
#        155587
#        180570
#
# Disc length: 2630 seconds
#
# Revision: 5
# Processed by: cddbd v1.5.2PL0 Copyright (c) Steve Scherf et al.
# Submitted via: ExactAudioCopy v0.99pb4
#
DISCID=6f0a440a
DTITLE=Various Artist - Stormy Weather
DYEAR=1998
DGENRE=Jazz-Blues
TTITLE0=Almost Blue [Gwen Stefani]
TTITLE1=You've Changed [Paula Cole]
TTITLE2=But Beautiful [Shawn Colvin]
TTITLE3=Good Guy [Trisha Yearwood]
TTITLE4=Is That All There Is? [Sandra Bernhard]
TTITLE5=Good Morning Heartache [Sheryl Crow]
TTITLE6=They Can't Take That Away From Me [Natalie Cole]
TTITLE7=At Last [Stevie Nicks]
TTITLE8=Gloomy Sunday [Bjork]
TTITLE9=Stormy Weather [Joni Mitchell]
EXTD=AT&T         1998
EXTT0=
EXTT1=
EXTT2=
EXTT3=
EXTT4=
EXTT5=
EXTT6=
EXTT7=
EXTT8=
EXTT9=
PLAYORDER=
